<mxfile host="app.diagrams.net" modified="2023-10-02T11:53:26.646Z" agent="Mozilla/5.0 (Windows NT 10.0; Win64; x64; rv:109.0) Gecko/20100101 Firefox/117.0" etag="5Hyz4xSKN_uwOtD1f0os" version="22.0.0" type="device">
  <diagram name="Strona-1" id="2wco_YYxDc_6Ebd0FZVY">
    <mxGraphModel dx="798" dy="789" grid="1" gridSize="10" guides="1" tooltips="1" connect="1" arrows="1" fold="1" page="1" pageScale="1" pageWidth="827" pageHeight="1169" math="0" shadow="0">
      <root>
        <mxCell id="0" />
        <mxCell id="1" parent="0" />
        <mxCell id="R5fq2WZIrJV0Ent8gnpl-5" style="edgeStyle=orthogonalEdgeStyle;rounded=0;orthogonalLoop=1;jettySize=auto;html=1;" parent="1" source="R5fq2WZIrJV0Ent8gnpl-1" target="R5fq2WZIrJV0Ent8gnpl-3" edge="1">
          <mxGeometry relative="1" as="geometry" />
        </mxCell>
        <mxCell id="R5fq2WZIrJV0Ent8gnpl-1" value="start" style="ellipse;whiteSpace=wrap;html=1;" parent="1" vertex="1">
          <mxGeometry x="340" y="60" width="120" height="80" as="geometry" />
        </mxCell>
        <mxCell id="R5fq2WZIrJV0Ent8gnpl-6" style="edgeStyle=orthogonalEdgeStyle;rounded=0;orthogonalLoop=1;jettySize=auto;html=1;" parent="1" source="R5fq2WZIrJV0Ent8gnpl-3" target="R5fq2WZIrJV0Ent8gnpl-4" edge="1">
          <mxGeometry relative="1" as="geometry" />
        </mxCell>
        <mxCell id="R5fq2WZIrJV0Ent8gnpl-3" value="l =0&lt;br&gt;p=15" style="rounded=0;whiteSpace=wrap;html=1;" parent="1" vertex="1">
          <mxGeometry x="340" y="230" width="120" height="60" as="geometry" />
        </mxCell>
        <mxCell id="R5fq2WZIrJV0Ent8gnpl-9" style="edgeStyle=orthogonalEdgeStyle;rounded=0;orthogonalLoop=1;jettySize=auto;html=1;" parent="1" source="R5fq2WZIrJV0Ent8gnpl-4" target="R5fq2WZIrJV0Ent8gnpl-8" edge="1">
          <mxGeometry relative="1" as="geometry" />
        </mxCell>
        <mxCell id="R5fq2WZIrJV0Ent8gnpl-4" value="sr=(l+p)/2" style="rounded=0;whiteSpace=wrap;html=1;" parent="1" vertex="1">
          <mxGeometry x="340" y="350" width="120" height="60" as="geometry" />
        </mxCell>
        <mxCell id="R5fq2WZIrJV0Ent8gnpl-17" style="edgeStyle=orthogonalEdgeStyle;rounded=0;orthogonalLoop=1;jettySize=auto;html=1;exitX=0;exitY=0.5;exitDx=0;exitDy=0;entryX=1;entryY=0.5;entryDx=0;entryDy=0;" parent="1" source="R5fq2WZIrJV0Ent8gnpl-8" target="R5fq2WZIrJV0Ent8gnpl-19" edge="1">
          <mxGeometry relative="1" as="geometry">
            <mxPoint x="270" y="520" as="targetPoint" />
          </mxGeometry>
        </mxCell>
        <mxCell id="R5fq2WZIrJV0Ent8gnpl-18" style="edgeStyle=orthogonalEdgeStyle;rounded=0;orthogonalLoop=1;jettySize=auto;html=1;entryX=0;entryY=0.5;entryDx=0;entryDy=0;" parent="1" source="R5fq2WZIrJV0Ent8gnpl-8" target="R5fq2WZIrJV0Ent8gnpl-13" edge="1">
          <mxGeometry relative="1" as="geometry" />
        </mxCell>
        <mxCell id="R5fq2WZIrJV0Ent8gnpl-8" value="l=p" style="rhombus;whiteSpace=wrap;html=1;" parent="1" vertex="1">
          <mxGeometry x="360" y="480" width="80" height="80" as="geometry" />
        </mxCell>
        <mxCell id="WwS4__SCPV6CPkvc2rBp-2" style="edgeStyle=orthogonalEdgeStyle;rounded=0;orthogonalLoop=1;jettySize=auto;html=1;exitX=0.5;exitY=1;exitDx=0;exitDy=0;" edge="1" parent="1" source="R5fq2WZIrJV0Ent8gnpl-13" target="WwS4__SCPV6CPkvc2rBp-1">
          <mxGeometry relative="1" as="geometry" />
        </mxCell>
        <mxCell id="R5fq2WZIrJV0Ent8gnpl-13" value="&lt;div&gt;sr&amp;gt;szukana&lt;/div&gt;&lt;div&gt;sr-1=p&lt;br&gt;&lt;/div&gt;" style="rhombus;whiteSpace=wrap;html=1;" parent="1" vertex="1">
          <mxGeometry x="560" y="480" width="80" height="80" as="geometry" />
        </mxCell>
        <mxCell id="WwS4__SCPV6CPkvc2rBp-8" style="edgeStyle=orthogonalEdgeStyle;rounded=0;orthogonalLoop=1;jettySize=auto;html=1;entryX=0;entryY=0.5;entryDx=0;entryDy=0;" edge="1" parent="1" source="R5fq2WZIrJV0Ent8gnpl-19" target="WwS4__SCPV6CPkvc2rBp-5">
          <mxGeometry relative="1" as="geometry">
            <mxPoint x="340" y="780" as="targetPoint" />
            <mxPoint x="220" y="570" as="sourcePoint" />
            <Array as="points">
              <mxPoint x="220" y="770" />
            </Array>
          </mxGeometry>
        </mxCell>
        <mxCell id="R5fq2WZIrJV0Ent8gnpl-19" value="sr=szukana" style="rhombus;whiteSpace=wrap;html=1;" parent="1" vertex="1">
          <mxGeometry x="180" y="480" width="80" height="80" as="geometry" />
        </mxCell>
        <mxCell id="WwS4__SCPV6CPkvc2rBp-4" style="edgeStyle=orthogonalEdgeStyle;rounded=0;orthogonalLoop=1;jettySize=auto;html=1;exitX=0.5;exitY=1;exitDx=0;exitDy=0;" edge="1" parent="1" source="WwS4__SCPV6CPkvc2rBp-1" target="WwS4__SCPV6CPkvc2rBp-3">
          <mxGeometry relative="1" as="geometry" />
        </mxCell>
        <mxCell id="WwS4__SCPV6CPkvc2rBp-1" value="&lt;div&gt;sr&amp;gt;szukana&lt;/div&gt;&lt;div&gt;sr+1=l&lt;br&gt;&lt;/div&gt;" style="rhombus;whiteSpace=wrap;html=1;" vertex="1" parent="1">
          <mxGeometry x="560" y="610" width="80" height="80" as="geometry" />
        </mxCell>
        <mxCell id="WwS4__SCPV6CPkvc2rBp-6" style="edgeStyle=orthogonalEdgeStyle;rounded=0;orthogonalLoop=1;jettySize=auto;html=1;entryX=1;entryY=0.5;entryDx=0;entryDy=0;" edge="1" parent="1" source="WwS4__SCPV6CPkvc2rBp-3" target="WwS4__SCPV6CPkvc2rBp-5">
          <mxGeometry relative="1" as="geometry" />
        </mxCell>
        <mxCell id="WwS4__SCPV6CPkvc2rBp-3" value="&lt;code&gt;sr=(l+p)/2&lt;/code&gt;" style="rhombus;whiteSpace=wrap;html=1;" vertex="1" parent="1">
          <mxGeometry x="560" y="730" width="80" height="80" as="geometry" />
        </mxCell>
        <mxCell id="WwS4__SCPV6CPkvc2rBp-5" value="zmień szukaną" style="shape=parallelogram;perimeter=parallelogramPerimeter;whiteSpace=wrap;html=1;fixedSize=1;" vertex="1" parent="1">
          <mxGeometry x="330" y="740" width="120" height="60" as="geometry" />
        </mxCell>
      </root>
    </mxGraphModel>
  </diagram>
</mxfile>
